<mxfile host="Electron" modified="2024-01-23T05:53:30.062Z" agent="Mozilla/5.0 (X11; Linux x86_64) AppleWebKit/537.36 (KHTML, like Gecko) draw.io/22.1.21 Chrome/120.0.6099.109 Electron/28.1.0 Safari/537.36" etag="RryBCtT_MmdZtg0roXXP" version="22.1.21" type="device">
  <diagram name="Page-1" id="2ywlA1e-Eg4ox31CMiBY">
    <mxGraphModel dx="1600" dy="747" grid="1" gridSize="10" guides="1" tooltips="1" connect="1" arrows="1" fold="1" page="1" pageScale="1" pageWidth="827" pageHeight="1169" math="0" shadow="0">
      <root>
        <mxCell id="0" />
        <mxCell id="1" parent="0" />
        <mxCell id="A9gMFnjORokhTtZh7m1z-2" value="&lt;b&gt;&lt;font style=&quot;font-size: 18px;&quot;&gt;Basic SQL Chatbot Flow&lt;/font&gt;&lt;/b&gt;" style="text;html=1;align=center;verticalAlign=middle;resizable=0;points=[];autosize=1;strokeColor=none;fillColor=none;" vertex="1" parent="1">
          <mxGeometry x="299" y="40" width="230" height="40" as="geometry" />
        </mxCell>
        <mxCell id="A9gMFnjORokhTtZh7m1z-13" value="&lt;b&gt;&lt;font style=&quot;font-size: 18px;&quot;&gt;SQL Database&lt;/font&gt;&lt;/b&gt;" style="shape=cylinder3;whiteSpace=wrap;html=1;boundedLbl=1;backgroundOutline=1;size=15;" vertex="1" parent="1">
          <mxGeometry x="640" y="359" width="120" height="120" as="geometry" />
        </mxCell>
        <mxCell id="A9gMFnjORokhTtZh7m1z-23" value="" style="edgeStyle=orthogonalEdgeStyle;rounded=0;orthogonalLoop=1;jettySize=auto;html=1;" edge="1" parent="1" source="A9gMFnjORokhTtZh7m1z-14" target="A9gMFnjORokhTtZh7m1z-22">
          <mxGeometry relative="1" as="geometry" />
        </mxCell>
        <mxCell id="A9gMFnjORokhTtZh7m1z-14" value="&lt;b&gt;&lt;font style=&quot;font-size: 14px;&quot;&gt;prompt&lt;br&gt;+&lt;br&gt;tablt info&lt;br&gt;+&lt;br&gt;chat history&lt;br&gt;+&lt;br&gt;query&lt;/font&gt;&lt;/b&gt;" style="rounded=1;whiteSpace=wrap;html=1;" vertex="1" parent="1">
          <mxGeometry x="160" y="163" width="160" height="117" as="geometry" />
        </mxCell>
        <mxCell id="A9gMFnjORokhTtZh7m1z-17" style="edgeStyle=orthogonalEdgeStyle;rounded=0;orthogonalLoop=1;jettySize=auto;html=1;entryX=0;entryY=0.5;entryDx=0;entryDy=0;" edge="1" parent="1" source="A9gMFnjORokhTtZh7m1z-15" target="A9gMFnjORokhTtZh7m1z-14">
          <mxGeometry relative="1" as="geometry" />
        </mxCell>
        <mxCell id="A9gMFnjORokhTtZh7m1z-15" value="&lt;b&gt;&lt;font style=&quot;font-size: 18px;&quot;&gt;query&lt;/font&gt;&lt;/b&gt;" style="text;html=1;align=center;verticalAlign=middle;resizable=0;points=[];autosize=1;strokeColor=none;fillColor=none;" vertex="1" parent="1">
          <mxGeometry x="40" y="160" width="70" height="40" as="geometry" />
        </mxCell>
        <mxCell id="A9gMFnjORokhTtZh7m1z-20" style="edgeStyle=orthogonalEdgeStyle;rounded=0;orthogonalLoop=1;jettySize=auto;html=1;entryX=0;entryY=0.5;entryDx=0;entryDy=0;" edge="1" parent="1" source="A9gMFnjORokhTtZh7m1z-16" target="A9gMFnjORokhTtZh7m1z-14">
          <mxGeometry relative="1" as="geometry" />
        </mxCell>
        <mxCell id="A9gMFnjORokhTtZh7m1z-16" value="&lt;b&gt;&lt;font style=&quot;font-size: 18px;&quot;&gt;chat&lt;br&gt;history&lt;br&gt;&lt;/font&gt;&lt;/b&gt;" style="text;html=1;align=center;verticalAlign=middle;resizable=0;points=[];autosize=1;strokeColor=none;fillColor=none;" vertex="1" parent="1">
          <mxGeometry x="30" y="230" width="80" height="60" as="geometry" />
        </mxCell>
        <mxCell id="A9gMFnjORokhTtZh7m1z-25" value="" style="edgeStyle=orthogonalEdgeStyle;rounded=0;orthogonalLoop=1;jettySize=auto;html=1;" edge="1" parent="1" source="A9gMFnjORokhTtZh7m1z-22" target="A9gMFnjORokhTtZh7m1z-24">
          <mxGeometry relative="1" as="geometry" />
        </mxCell>
        <mxCell id="A9gMFnjORokhTtZh7m1z-22" value="&lt;b&gt;&lt;font style=&quot;font-size: 14px;&quot;&gt;LLM&lt;br&gt;it will try to generate a SQL query based on the inputs&lt;/font&gt;&lt;/b&gt;" style="rounded=1;whiteSpace=wrap;html=1;" vertex="1" parent="1">
          <mxGeometry x="360" y="163" width="160" height="117" as="geometry" />
        </mxCell>
        <mxCell id="A9gMFnjORokhTtZh7m1z-30" value="" style="edgeStyle=orthogonalEdgeStyle;rounded=0;orthogonalLoop=1;jettySize=auto;html=1;" edge="1" parent="1" source="A9gMFnjORokhTtZh7m1z-24" target="A9gMFnjORokhTtZh7m1z-29">
          <mxGeometry relative="1" as="geometry" />
        </mxCell>
        <mxCell id="A9gMFnjORokhTtZh7m1z-24" value="&lt;span style=&quot;font-size: 14px;&quot;&gt;&lt;b&gt;SQL query, try to execuite the query on actual database.&lt;/b&gt;&lt;/span&gt;" style="rounded=1;whiteSpace=wrap;html=1;" vertex="1" parent="1">
          <mxGeometry x="360" y="360" width="160" height="117" as="geometry" />
        </mxCell>
        <mxCell id="A9gMFnjORokhTtZh7m1z-28" style="edgeStyle=orthogonalEdgeStyle;rounded=0;orthogonalLoop=1;jettySize=auto;html=1;entryX=0;entryY=0.5;entryDx=0;entryDy=0;entryPerimeter=0;" edge="1" parent="1" source="A9gMFnjORokhTtZh7m1z-24" target="A9gMFnjORokhTtZh7m1z-13">
          <mxGeometry relative="1" as="geometry" />
        </mxCell>
        <mxCell id="A9gMFnjORokhTtZh7m1z-32" value="" style="edgeStyle=orthogonalEdgeStyle;rounded=0;orthogonalLoop=1;jettySize=auto;html=1;" edge="1" parent="1" source="A9gMFnjORokhTtZh7m1z-29" target="A9gMFnjORokhTtZh7m1z-31">
          <mxGeometry relative="1" as="geometry" />
        </mxCell>
        <mxCell id="A9gMFnjORokhTtZh7m1z-36" value="" style="edgeStyle=orthogonalEdgeStyle;rounded=0;orthogonalLoop=1;jettySize=auto;html=1;" edge="1" parent="1" source="A9gMFnjORokhTtZh7m1z-29" target="A9gMFnjORokhTtZh7m1z-35">
          <mxGeometry relative="1" as="geometry" />
        </mxCell>
        <mxCell id="A9gMFnjORokhTtZh7m1z-29" value="&lt;b&gt;&lt;font style=&quot;font-size: 14px;&quot;&gt;Query&lt;br&gt;success?&lt;/font&gt;&lt;/b&gt;" style="rhombus;whiteSpace=wrap;html=1;" vertex="1" parent="1">
          <mxGeometry x="380" y="520" width="120" height="120" as="geometry" />
        </mxCell>
        <mxCell id="A9gMFnjORokhTtZh7m1z-31" value="&lt;span style=&quot;font-size: 14px;&quot;&gt;&lt;b&gt;format a response saying &quot;I don&#39;t know the answer&quot;&lt;/b&gt;&lt;/span&gt;" style="rounded=1;whiteSpace=wrap;html=1;" vertex="1" parent="1">
          <mxGeometry x="560" y="521.5" width="160" height="117" as="geometry" />
        </mxCell>
        <mxCell id="A9gMFnjORokhTtZh7m1z-34" value="&lt;b&gt;&lt;font style=&quot;font-size: 14px;&quot;&gt;NO&lt;/font&gt;&lt;/b&gt;" style="text;html=1;align=center;verticalAlign=middle;resizable=0;points=[];autosize=1;strokeColor=none;fillColor=none;" vertex="1" parent="1">
          <mxGeometry x="510" y="550" width="40" height="30" as="geometry" />
        </mxCell>
        <mxCell id="A9gMFnjORokhTtZh7m1z-40" style="edgeStyle=orthogonalEdgeStyle;rounded=0;orthogonalLoop=1;jettySize=auto;html=1;" edge="1" parent="1" source="A9gMFnjORokhTtZh7m1z-35" target="A9gMFnjORokhTtZh7m1z-39">
          <mxGeometry relative="1" as="geometry" />
        </mxCell>
        <mxCell id="A9gMFnjORokhTtZh7m1z-35" value="&lt;span style=&quot;font-size: 14px;&quot;&gt;&lt;b&gt;format the SQL query response using LLM&lt;/b&gt;&lt;/span&gt;" style="rounded=1;whiteSpace=wrap;html=1;" vertex="1" parent="1">
          <mxGeometry x="360" y="680" width="160" height="117" as="geometry" />
        </mxCell>
        <mxCell id="A9gMFnjORokhTtZh7m1z-37" value="&lt;b&gt;&lt;font style=&quot;font-size: 14px;&quot;&gt;YES&lt;/font&gt;&lt;/b&gt;" style="text;html=1;align=center;verticalAlign=middle;resizable=0;points=[];autosize=1;strokeColor=none;fillColor=none;" vertex="1" parent="1">
          <mxGeometry x="440" y="640" width="50" height="30" as="geometry" />
        </mxCell>
        <mxCell id="A9gMFnjORokhTtZh7m1z-39" value="&lt;b&gt;&lt;font style=&quot;font-size: 18px;&quot;&gt;response&lt;br&gt;&lt;/font&gt;&lt;/b&gt;" style="text;html=1;align=center;verticalAlign=middle;resizable=0;points=[];autosize=1;strokeColor=none;fillColor=none;" vertex="1" parent="1">
          <mxGeometry x="30" y="718.5" width="100" height="40" as="geometry" />
        </mxCell>
      </root>
    </mxGraphModel>
  </diagram>
</mxfile>
